<svg xmlns="http://www.w3.org/2000/svg" viewBox="0 0 1200 400" font-family="'Courier New', monospace">
  <defs>
    <linearGradient id="bg" x1="0" y1="0" x2="0" y2="1">
      <stop offset="0%" stop-color="#1a1440"/>
      <stop offset="100%" stop-color="#241a4d"/>
    </linearGradient>
    <marker id="a1" viewBox="0 0 10 10" refX="9" refY="5" markerWidth="6" markerHeight="6" orient="auto-start-reverse">
      <path d="M0,0 L10,5 L0,10 z" fill="#5b8def"/>
    </marker>
    <marker id="a2" viewBox="0 0 10 10" refX="9" refY="5" markerWidth="6" markerHeight="6" orient="auto-start-reverse">
      <path d="M0,0 L10,5 L0,10 z" fill="#3ddc97"/>
    </marker>
    <marker id="a3" viewBox="0 0 10 10" refX="9" refY="5" markerWidth="6" markerHeight="6" orient="auto-start-reverse">
      <path d="M0,0 L10,5 L0,10 z" fill="#f0a83c"/>
    </marker>
  </defs>
  <rect width="1200" height="400" fill="url(#bg)"/>
  <ellipse cx="140" cy="90" rx="150" ry="60" fill="#ffffff" opacity="0.05"/>
  <ellipse cx="1060" cy="90" rx="160" ry="60" fill="#ffffff" opacity="0.05"/>
  <text x="600" y="70" text-anchor="middle" font-size="34" font-weight="bold" fill="#ffffff">A dashboard that never sleeps</text>

  <rect x="110" y="180" width="150" height="50" rx="6" fill="none" stroke="#5b8def" stroke-width="2"/>
  <text x="185" y="210" text-anchor="middle" font-size="16" fill="#e8ecff">watchdogs</text>
  <line x1="260" y1="205" x2="365" y2="205" stroke="#5b8def" stroke-width="2" marker-end="url(#a1)"/>

  <path d="M375,205 L400,205 L410,175 L425,235 L440,205 L465,205" fill="none" stroke="#3ddc97" stroke-width="3"/>
  <line x1="465" y1="205" x2="565" y2="205" stroke="#3ddc97" stroke-width="2" marker-end="url(#a2)"/>

  <rect x="575" y="170" width="200" height="70" rx="6" fill="none" stroke="#3ddc97" stroke-width="2"/>
  <text x="675" y="200" text-anchor="middle" font-size="16" font-weight="bold" fill="#e8ecff">Uptime Kuma</text>
  <text x="675" y="222" text-anchor="middle" font-size="13" fill="#a9b3d9">15 monitors</text>
  <line x1="775" y1="205" x2="855" y2="205" stroke="#f0a83c" stroke-width="2" marker-end="url(#a3)"/>

  <path d="M885,180 a25,25 0 0 1 25,25 v10 h-50 v-10 a25,25 0 0 1 25,-25 z" fill="none" stroke="#f0a83c" stroke-width="3"/>
  <circle cx="885" cy="222" r="5" fill="#f0a83c"/>
  <line x1="925" y1="205" x2="985" y2="205" stroke="#f0a83c" stroke-width="2" marker-end="url(#a3)"/>

  <rect x="1000" y="170" width="45" height="75" rx="8" fill="none" stroke="#e8ecff" stroke-width="2"/>
  <circle cx="1022" cy="235" r="3" fill="#e8ecff"/>

  <text x="600" y="345" text-anchor="middle" font-size="18" fill="#a9b3d9">Uptime Kuma + ntfy — 15 monitors, 6 real bugs found along the way</text>
</svg>
