<svg xmlns="http://www.w3.org/2000/svg" viewBox="0 0 1544 500" font-family="'Courier New', monospace">
  <defs>
    <clipPath id="diag"><polygon points="0,0 1544,0 1544,500 700,500"/></clipPath>
  </defs>
  <rect width="1544" height="500" fill="#0d4a4d"/>
  <polygon points="0,0 1544,0 1544,500 700,500" fill="#127a80"/>
  <text x="70" y="130" font-size="52" font-weight="bold" fill="#ffffff">IPv6 addressing</text>
  <text x="70" y="200" font-size="52" font-weight="bold" fill="#ffffff">convention</text>
  <text x="70" y="260" font-size="24" fill="#dff3f2">Giving every server on the network a</text>
  <text x="70" y="292" font-size="24" fill="#dff3f2">predictable IPv6 address</text>

  <g stroke="#ffffff" stroke-width="3" fill="none">
    <line x1="1220" y1="140" x2="1110" y2="290"/>
    <line x1="1220" y1="140" x2="1330" y2="290"/>
    <line x1="1110" y1="290" x2="1330" y2="290"/>
    <line x1="1110" y1="290" x2="1220" y2="420"/>
    <line x1="1330" y1="290" x2="1220" y2="420"/>
  </g>
  <g fill="#ffffff">
    <circle cx="1110" cy="290" r="18"/>
    <circle cx="1330" cy="290" r="18"/>
    <circle cx="1220" cy="420" r="18"/>
  </g>
  <circle cx="1220" cy="140" r="26" fill="#ffffff"/>
  <text x="1220" y="147" text-anchor="middle" font-size="17" font-weight="bold" fill="#0d4a4d">::81</text>
</svg>
