<svg xmlns="http://www.w3.org/2000/svg" viewBox="0 0 1024 320" font-family="'Courier New', monospace">
  <defs>
    <linearGradient id="bg4" x1="0" y1="0" x2="0" y2="1">
      <stop offset="0%" stop-color="#1a1440"/>
      <stop offset="100%" stop-color="#241a4d"/>
    </linearGradient>
    <marker id="c1" viewBox="0 0 10 10" refX="9" refY="5" markerWidth="6" markerHeight="6" orient="auto-start-reverse">
      <path d="M0,0 L10,5 L0,10 z" fill="#5b8def"/>
    </marker>
  </defs>
  <rect width="1024" height="320" fill="url(#bg4)"/>
  <ellipse cx="130" cy="50" rx="130" ry="45" fill="#ffffff" opacity="0.06"/>
  <ellipse cx="900" cy="50" rx="140" ry="45" fill="#ffffff" opacity="0.06"/>
  <text x="512" y="40" text-anchor="middle" font-size="21" fill="#ffffff">A local LLM that genuinely turns on the lights</text>

  <rect x="65" y="115" width="30" height="55" rx="14" fill="#e8ecff"/>
  <line x1="80" y1="185" x2="80" y2="205" stroke="#e8ecff" stroke-width="3"/>
  <line x1="60" y1="205" x2="100" y2="205" stroke="#e8ecff" stroke-width="3"/>
  <path d="M45,150 a35,35 0 0 1 0,-45" fill="none" stroke="#bfe9ff" stroke-width="3"/>
  <path d="M30,155 a55,55 0 0 1 0,-70" fill="none" stroke="#bfe9ff" stroke-width="3" opacity="0.6"/>
  <line x1="180" y1="150" x2="365" y2="150" stroke="#5b8def" stroke-width="3" marker-end="url(#c1)"/>

  <rect x="400" y="105" width="220" height="90" rx="6" fill="#1a1440" stroke="#3ddc97" stroke-width="2"/>
  <circle cx="455" cy="150" r="16" fill="#3ddc97" opacity="0.85"/>
  <circle cx="565" cy="150" r="16" fill="#3ddc97" opacity="0.85"/>
  <rect x="392" y="130" width="8" height="14" fill="#3ddc97"/>
  <rect x="392" y="155" width="8" height="14" fill="#3ddc97"/>
  <line x1="640" y1="150" x2="800" y2="150" stroke="#5b8def" stroke-width="3" marker-end="url(#c1)"/>

  <rect x="815" y="135" width="30" height="30" rx="4" fill="none" stroke="#e8ecff" stroke-width="2"/>
  <line x1="822" y1="135" x2="822" y2="122" stroke="#e8ecff" stroke-width="2"/>
  <line x1="838" y1="135" x2="838" y2="122" stroke="#e8ecff" stroke-width="2"/>

  <circle cx="920" cy="150" r="55" fill="#241a4d" opacity="0.7"/>
  <circle cx="920" cy="140" r="30" fill="#f0d43c"/>
  <rect x="908" y="168" width="24" height="14" rx="3" fill="#cfcfcf"/>

  <text x="512" y="270" text-anchor="middle" font-size="17" font-weight="bold" fill="#a9b3d9">Qwen3 8B — RTX 3060 12GB — Ollama</text>
</svg>
