<svg xmlns="http://www.w3.org/2000/svg" viewBox="0 0 1024 320" font-family="Helvetica, Arial, sans-serif" role="img" aria-label="Illustration : une onde sonore qui se transforme en mot-clé « Ok Bob » entendu par un haut-parleur intelligent"><defs><linearGradient id="bgob" x1="0" y1="0" x2="1" y2="1"><stop offset="0%" stop-color="#1b1a4a"></stop><stop offset="100%" stop-color="#6e1e56"></stop></linearGradient><linearGradient id="waveob" x1="0" y1="0" x2="1" y2="0"><stop offset="0%" stop-color="#8fe3b0"></stop><stop offset="100%" stop-color="#5ec2ff"></stop></linearGradient></defs><rect x="0" y="0" width="1024" height="320" fill="url(#bgob)"></rect><g fill="#ffffff" opacity="0.06"><ellipse cx="130" cy="55" rx="120" ry="38"></ellipse><ellipse cx="900" cy="65" rx="150" ry="42"></ellipse></g><text x="512" y="55" text-anchor="middle" font-size="34" fill="#ffffff" font-weight="bold">« Ok Bob »</text><g transform="translate(90,120)" stroke="#8fe3b0" stroke-width="8" stroke-linecap="round"><line x1="0" y1="30" x2="0" y2="50"></line><line x1="30" y1="15" x2="30" y2="65"></line><line x1="60" y1="0" x2="60" y2="80"></line><line x1="90" y1="20" x2="90" y2="60"></line><line x1="120" y1="-20" x2="120" y2="100"></line><line x1="150" y1="10" x2="150" y2="70"></line><line x1="180" y1="25" x2="180" y2="55"></line><line x1="210" y1="-10" x2="210" y2="90"></line><line x1="240" y1="15" x2="240" y2="65"></line><line x1="270" y1="30" x2="270" y2="50"></line></g><g transform="translate(430,60)"><rect x="0" y="0" width="180" height="200" rx="16" fill="#2a2a3d"></rect><rect x="14" y="16" width="152" height="140" rx="8" fill="#1b1b2a"></rect><circle cx="90" cy="180" r="10" fill="#5ec2ff"></circle><text x="90" y="90" text-anchor="middle" font-size="15" fill="#8fe3b0" font-weight="bold">fr-CA</text><text x="90" y="112" text-anchor="middle" font-size="12" fill="#d8f5e2">microWakeWord</text></g><g transform="translate(700,110)"><ellipse cx="70" cy="30" rx="80" ry="30" fill="#ffffff" opacity="0.9"></ellipse><text x="70" y="36" text-anchor="middle" font-size="14" fill="#3a1f4a" font-weight="bold">Voice PE</text></g><g stroke="#ffb3ea" stroke-width="4"><line x1="360" y1="160" x2="420" y2="160"></line><line x1="620" y1="160" x2="695" y2="140"></line></g><text x="512" y="290" text-anchor="middle" font-size="20" fill="#ffffff" font-weight="bold" opacity="0.9">Entraîner un mot de réveil en québécois, à partir de zéro</text></svg>
