<svg xmlns="http://www.w3.org/2000/svg" viewBox="0 0 1024 320" font-family="Helvetica, Arial, sans-serif" role="img" aria-label="Illustration : un cadenas renforcé devant un flux de requêtes ralenti par un limiteur de débit"><defs><linearGradient id="bg2" x1="0" y1="0" x2="1" y2="1"><stop offset="0%" stop-color="#1b2a4a"></stop><stop offset="100%" stop-color="#5c1e6e"></stop></linearGradient><linearGradient id="lock2" x1="0" y1="0" x2="0" y2="1"><stop offset="0%" stop-color="#8fe3b0"></stop><stop offset="100%" stop-color="#2c8a4b"></stop></linearGradient></defs><rect x="0" y="0" width="1024" height="320" fill="url(#bg2)"></rect><g fill="#ffffff" opacity="0.06"><ellipse cx="140" cy="60" rx="120" ry="38"></ellipse><ellipse cx="900" cy="70" rx="150" ry="42"></ellipse></g><g transform="translate(90,90)"><rect x="0" y="60" width="150" height="120" rx="14" fill="#2a2a2a"></rect><rect x="12" y="72" width="126" height="96" rx="8" fill="#3d3d3d"></rect><path d="M35 60 v-20 a40 40 0 0 1 80 0 v20" fill="none" stroke="url(#lock2)" stroke-width="16"></path><circle cx="75" cy="115" r="17" fill="url(#lock2)"></circle><rect x="69" y="115" width="12" height="28" rx="4" fill="url(#lock2)"></rect><text x="75" y="205" text-anchor="middle" font-size="13" fill="#d8f5e2">bcrypt · coût 10</text></g><g transform="translate(420,110)"><rect x="0" y="0" width="220" height="90" rx="10" fill="#ffffff" opacity="0.9"></rect><text x="110" y="35" text-anchor="middle" font-size="15" font-weight="bold" fill="#3a1f4a">2 req/s</text><text x="110" y="58" text-anchor="middle" font-size="13" fill="#5c1e6e">rafale 20</text><text x="110" y="78" text-anchor="middle" font-size="11" fill="#7a5a8a">par client (Cf-Connecting-Ip)</text></g><g stroke="#ffb3ea" stroke-width="4"><line x1="240" y1="150" x2="410" y2="150"></line><line x1="650" y1="150" x2="760" y2="150"></line></g><g transform="translate(770,95)"><ellipse cx="70" cy="20" rx="70" ry="26" fill="#ffffff"></ellipse><text x="70" y="26" text-anchor="middle" font-size="13" fill="#0e5c47" font-weight="bold">Traefik</text></g><text x="512" y="290" text-anchor="middle" font-size="22" fill="#ffffff" font-weight="bold" opacity="0.9">Durcir sans casser le mobile</text></svg>
